<svg xmlns="http://www.w3.org/2000/svg" xmlns:xlink="http://www.w3.org/1999/xlink" width="500" zoomAndPan="magnify" viewBox="0 0 375 374.999991" height="500" preserveAspectRatio="xMidYMid meet" version="1.0"><defs><g/><clipPath id="6b708183f4"><path d="M 1 6 L 171.921875 6 L 171.921875 139 L 1 139 Z M 1 6 " clip-rule="nonzero"/></clipPath><clipPath id="750da38a7a"><rect x="0" width="172" y="0" height="196"/></clipPath><clipPath id="52db5f2741"><rect x="0" width="131" y="0" height="219"/></clipPath></defs><g transform="matrix(1, 0, 0, 1, 58, 87)"><g clip-path="url(#750da38a7a)"><g clip-path="url(#6b708183f4)"><g fill="#000000" fill-opacity="1"><g transform="translate(5.2896, 132.803745)"><g><path d="M 149.71875 -109.375 C 160.675781 -102.851562 166.15625 -94.992188 166.15625 -85.796875 C 166.15625 -78.554688 162.125 -70.796875 154.0625 -62.515625 C 149.40625 -57.660156 143.894531 -53.472656 137.53125 -49.953125 C 131.164062 -46.441406 124.882812 -43.910156 118.6875 -42.359375 C 107.925781 -39.765625 98.203125 -38.46875 89.515625 -38.46875 C 87.648438 -38.46875 85.789062 -38.519531 83.9375 -38.625 C 76.382812 -27.5625 68.625 -18.148438 60.65625 -10.390625 C 48.96875 0.566406 36.09375 6.046875 22.03125 6.046875 C 8.582031 6.046875 0.304688 2.375 -2.796875 -4.96875 C -3.515625 -6.726562 -3.875 -8.769531 -3.875 -11.09375 C -3.875 -13.414062 -2.6875 -15.921875 -0.3125 -18.609375 C 3.414062 -22.859375 8.640625 -24.984375 15.359375 -24.984375 C 19.703125 -24.984375 24.253906 -24.207031 29.015625 -22.65625 C 30.773438 -22.03125 31.394531 -21.359375 30.875 -20.640625 C 30.457031 -20.222656 29.109375 -20.425781 26.828125 -21.25 C 24.554688 -22.082031 21.738281 -22.5 18.375 -22.5 C 15.019531 -22.5 12.070312 -21.226562 9.53125 -18.6875 C 7 -16.15625 5.734375 -13.441406 5.734375 -10.546875 C 5.734375 -9.410156 5.941406 -8.273438 6.359375 -7.140625 C 8.015625 -1.554688 12.722656 1.234375 20.484375 1.234375 C 32.066406 1.234375 43.441406 -4.140625 54.609375 -14.890625 C 62.578125 -22.648438 71.523438 -36.613281 81.453125 -56.78125 C 85.273438 -64.332031 90.03125 -72.734375 95.71875 -81.984375 C 101.40625 -91.242188 107.195312 -99.1875 113.09375 -105.8125 C 113.820312 -106.53125 114.753906 -107.457031 115.890625 -108.59375 C 118.066406 -111.082031 119.878906 -113.050781 121.328125 -114.5 C 113.878906 -115.53125 105.910156 -116.046875 97.421875 -116.046875 C 88.941406 -116.046875 80.925781 -115.347656 73.375 -113.953125 C 65.832031 -112.554688 59.265625 -110.898438 53.671875 -108.984375 C 48.085938 -107.066406 42.425781 -104.582031 36.6875 -101.53125 C 30.945312 -98.488281 26.113281 -94.640625 22.1875 -89.984375 C 17.007812 -84.085938 14.421875 -77.929688 14.421875 -71.515625 C 14.421875 -67.585938 15.820312 -63.914062 18.625 -60.5 C 21.613281 -56.882812 25.460938 -55.078125 30.171875 -55.078125 C 34.878906 -55.078125 39.429688 -56.882812 43.828125 -60.5 C 48.222656 -64.125 51.351562 -68.570312 53.21875 -73.84375 C 53.320312 -74.570312 53.550781 -75.0625 53.90625 -75.3125 C 54.269531 -75.570312 54.609375 -75.546875 54.921875 -75.234375 C 55.234375 -74.929688 55.390625 -74.414062 55.390625 -73.6875 C 55.285156 -66.96875 52.671875 -61.664062 47.546875 -57.78125 C 42.429688 -53.90625 36.769531 -51.96875 30.5625 -51.96875 C 23.53125 -51.96875 17.789062 -54.035156 13.34375 -58.171875 C 8.894531 -62.316406 6.671875 -67.644531 6.671875 -74.15625 C 6.671875 -80.15625 8.273438 -85.554688 11.484375 -90.359375 C 14.691406 -95.171875 18.519531 -99.078125 22.96875 -102.078125 C 27.414062 -105.078125 32.535156 -107.769531 38.328125 -110.15625 C 48.148438 -114.082031 58.460938 -116.847656 69.265625 -118.453125 C 80.078125 -120.054688 90.160156 -120.859375 99.515625 -120.859375 C 108.878906 -120.859375 117.546875 -120.03125 125.515625 -118.375 C 129.234375 -121.269531 132.488281 -123.234375 135.28125 -124.265625 C 138.070312 -125.296875 139.648438 -125.8125 140.015625 -125.8125 C 140.378906 -125.8125 140.613281 -125.757812 140.71875 -125.65625 C 141.332031 -125.65625 141.457031 -125.316406 141.09375 -124.640625 C 140.738281 -123.972656 139.550781 -122.96875 137.53125 -121.625 C 135.519531 -120.28125 133.582031 -118.679688 131.71875 -116.828125 C 138.332031 -115.066406 144.332031 -112.582031 149.71875 -109.375 Z M 88.28125 -41.890625 C 95.820312 -41.890625 104.015625 -43.207031 112.859375 -45.84375 C 121.703125 -48.476562 129.539062 -52.332031 136.375 -57.40625 C 149.613281 -67.4375 156.234375 -77.78125 156.234375 -88.4375 C 156.234375 -100.53125 147.078125 -108.75 128.765625 -113.09375 C 122.972656 -105.03125 115.472656 -92.773438 106.265625 -76.328125 C 97.066406 -59.878906 90.347656 -48.398438 86.109375 -41.890625 C 86.828125 -41.890625 87.550781 -41.890625 88.28125 -41.890625 Z M 88.28125 -41.890625 "/></g></g></g></g></g></g><g transform="matrix(1, 0, 0, 1, 157, 100)"><g clip-path="url(#52db5f2741)"><g fill="#000000" fill-opacity="1"><g transform="translate(0.464662, 157.449357)"><g><path d="M 67.734375 2.265625 C 50.492188 2.148438 36.507812 -3.289062 25.78125 -14.0625 C 15.0625 -24.84375 9.703125 -39.015625 9.703125 -56.578125 C 9.703125 -74.140625 15.0625 -88.335938 25.78125 -99.171875 C 36.507812 -110.003906 50.492188 -115.421875 67.734375 -115.421875 C 82.609375 -115.421875 95.703125 -111.757812 107.015625 -104.4375 L 110.25 -81.640625 L 108.796875 -81.640625 C 106.421875 -90.898438 101.648438 -98.035156 94.484375 -103.046875 C 87.316406 -108.066406 78.398438 -110.578125 67.734375 -110.578125 C 54.046875 -110.578125 42.972656 -105.617188 34.515625 -95.703125 C 26.054688 -85.785156 21.828125 -72.742188 21.828125 -56.578125 C 21.828125 -40.410156 26.054688 -27.394531 34.515625 -17.53125 C 42.972656 -7.675781 54.046875 -2.695312 67.734375 -2.59375 C 74.734375 -2.59375 81.382812 -3.828125 87.6875 -6.296875 C 94 -8.773438 99.523438 -12.226562 104.265625 -16.65625 L 104.265625 -45.265625 C 104.265625 -47.628906 103.535156 -49.429688 102.078125 -50.671875 C 100.628906 -51.910156 98.613281 -52.53125 96.03125 -52.53125 L 93.4375 -52.53125 L 93.4375 -54.15625 L 125.125 -54.15625 L 125.125 -52.53125 L 122.703125 -52.53125 C 120.003906 -52.53125 117.953125 -51.910156 116.546875 -50.671875 C 115.148438 -49.429688 114.503906 -47.628906 114.609375 -45.265625 L 114.609375 -18.59375 C 111.804688 -14.925781 108.460938 -11.632812 104.578125 -8.71875 C 100.703125 -5.8125 95.503906 -3.253906 88.984375 -1.046875 C 82.472656 1.160156 75.390625 2.265625 67.734375 2.265625 Z M 67.734375 2.265625 "/></g></g></g></g></g></svg>